<svg width="20" height="20" viewBox="0 0 20 20" fill="none" xmlns="http://www.w3.org/2000/svg">
<path d="M8.05786 6.31e-05C7.9238 -0.00152368 7.79131 0.026838 7.67166 0.0827354C7.55201 0.138633 7.44874 0.220412 7.37063 0.321117C7.29252 0.421821 7.24189 0.538471 7.22304 0.661144C7.20419 0.783816 7.21768 0.908882 7.26236 1.0257H4.80651C3.78703 1.0257 2.83235 1.49721 2.26721 2.28171L0.953662 4.10261H0.8442C0.733905 4.10117 0.624399 4.12 0.522047 4.15802C0.419695 4.19603 0.326538 4.25246 0.24799 4.32403C0.169441 4.3956 0.107069 4.48089 0.064496 4.57493C0.0219234 4.66898 0 4.7699 0 4.87184C0 4.97378 0.0219234 5.07471 0.064496 5.16875C0.107069 5.2628 0.169441 5.34808 0.24799 5.41966C0.326538 5.49123 0.419695 5.54766 0.522047 5.58567C0.624399 5.62368 0.733905 5.64251 0.8442 5.64107H1.26796C1.33936 5.65105 1.41186 5.65239 1.48363 5.64508L2.8557 17.48C3.02126 18.9068 4.33774 20 5.8903 20H14.1086C15.6612 20 16.9777 18.9068 17.1432 17.48L18.5164 5.64508C18.5867 5.65205 18.6577 5.6507 18.7277 5.64107H19.1558C19.2661 5.64251 19.3756 5.62368 19.478 5.58567C19.5803 5.54766 19.6735 5.49123 19.752 5.41966C19.8306 5.34808 19.8929 5.2628 19.9355 5.16875C19.9781 5.07471 20 4.97378 20 4.87184C20 4.7699 19.9781 4.66898 19.9355 4.57493C19.8929 4.48089 19.8306 4.3956 19.752 4.32403C19.6735 4.25246 19.5803 4.19603 19.478 4.15802C19.3756 4.12 19.2661 4.10117 19.1558 4.10261H19.0463L17.7328 2.28171C17.1672 1.49764 16.2126 1.0257 15.1935 1.0257H12.7376C12.7823 0.908882 12.7958 0.783816 12.777 0.661144C12.7581 0.538471 12.7075 0.421821 12.6294 0.321117C12.5513 0.220412 12.448 0.138633 12.3283 0.0827354C12.2087 0.026838 12.0762 -0.00152368 11.9421 6.31e-05H8.05786ZM4.80651 2.56416H15.1935C15.6581 2.56416 16.0899 2.7776 16.3477 3.13507L17.0457 4.10261H2.95433L3.65228 3.13507L3.65337 3.13407C3.91055 2.77705 4.34109 2.56416 4.80651 2.56416ZM3.15808 5.64107H16.8419L15.4883 17.3157C15.4119 17.974 14.8245 18.4615 14.1086 18.4615H5.8903C5.17443 18.4615 4.5881 17.974 4.51172 17.3157L3.15808 5.64107Z" fill="#FA3E3E"/>
</svg>
