<svg width="37" height="36" viewBox="0 0 37 36" fill="none" xmlns="http://www.w3.org/2000/svg">
<path d="M1.54167 31.5L18.5 3L35.4583 31.5H1.54167ZM6.86042 28.5H30.1396L18.5 9L6.86042 28.5ZM18.5 27C18.9368 27 19.303 26.8563 19.5984 26.5688C19.8939 26.2813 20.0417 25.925 20.0417 25.5C20.0417 25.075 19.8939 24.7188 19.5984 24.4313C19.303 24.1438 18.9368 24 18.5 24C18.0632 24 17.697 24.1438 17.4016 24.4313C17.1061 24.7188 16.9583 25.075 16.9583 25.5C16.9583 25.925 17.1061 26.2813 17.4016 26.5688C17.697 26.8563 18.0632 27 18.5 27ZM16.9583 22.5H20.0417V15H16.9583V22.5Z" fill="white"/>
</svg>
